<?xml version="1.0" encoding="UTF-8" standalone="no"?>
<!-- Created with Inkscape (http://www.inkscape.org/) -->
<svg xmlns:dc="http://purl.org/dc/elements/1.1/" xmlns:cc="http://creativecommons.org/ns#" xmlns:rdf="http://www.w3.org/1999/02/22-rdf-syntax-ns#" xmlns:svg="http://www.w3.org/2000/svg" xmlns="http://www.w3.org/2000/svg" xmlns:sodipodi="http://sodipodi.sourceforge.net/DTD/sodipodi-0.dtd" xmlns:inkscape="http://www.inkscape.org/namespaces/inkscape" version="1.1" viewBox="0 0 176 176" height="176mm" width="176mm">
  <title>OpenBlox logo</title>
  <metadata>
    <rdf:RDF>
      <cc:Work>
        <dc:format>image/svg+xml</dc:format>
        <dc:type rdf:resource="http://purl.org/dc/dcmitype/StillImage"/>
        <dc:title>OpenBlox logo</dc:title>
        <cc:license rdf:resource="http://creativecommons.org/licenses/by-sa/4.0/"/>
      </cc:Work>
      <cc:License rdf:about="http://creativecommons.org/licenses/by-sa/4.0/">
        <cc:permits rdf:resource="http://creativecommons.org/ns#Reproduction"/>
        <cc:permits rdf:resource="http://creativecommons.org/ns#Distribution"/>
        <cc:requires rdf:resource="http://creativecommons.org/ns#Notice"/>
        <cc:requires rdf:resource="http://creativecommons.org/ns#Attribution"/>
        <cc:permits rdf:resource="http://creativecommons.org/ns#DerivativeWorks"/>
        <cc:requires rdf:resource="http://creativecommons.org/ns#ShareAlike"/>
      </cc:License>
    </rdf:RDF>
  </metadata>
  <g id="layer1" transform="translate(-18.772539,-18.867918)">
    <g id="g4427">
      <path transform="matrix(0.26458333,0,0,0.26458333,18.772539,18.867918)" id="path4374" d="m 500.44722,540.62252 c -15.53633,-1.09309 -31.20633,-4.3456 -42.5,-8.82144 -8.9461,-3.54547 -21.50895,-10.31987 -28.87138,-15.56863 -24.01161,-17.11816 -44.1165,-45.73512 -51.15019,-72.80628 -3.10331,-11.94401 -3.92503,-21.02245 -4.66546,-51.54463 -0.38478,-15.86188 -0.9733,-29.32884 -1.30781,-29.92658 -0.47129,-0.84214 -11.68401,9.89519 -49.80668,47.69496 -61.04271,60.52568 -81.89958,80.51051 -88.84133,85.12683 -13.01327,8.6539 -34.78048,17.56863 -49.64286,20.33117 -10.23142,1.90176 -40.64946,1.92198 -49.93589,0.0332 -48.776032,-9.92066 -89.201421,-47.22606 -102.626651,-94.70604 -3.18896,-11.27815 -4.21421,-19.50382 -4.218964,-33.84907 -0.0088,-26.6244 3.180342,-41.16878 13.586219,-61.96075 5.84508,-11.67905 11.80178,-20.22472 21.06559,-30.2214 8.821007,-9.51885 82.824486,-83.36824 103.915406,-103.69905 19.64862,-18.94047 31.31352,-29.50405 35.71429,-32.34235 12.31866,-7.94501 30.08776,-14.99283 45.71428,-18.13181 7.27105,-1.46058 10.26481,-1.65018 26.07143,-1.65113 15.99517,-0.001 18.71365,0.17527 26.07143,1.69016 20.12852,4.14426 38.25787,12.44146 54.64286,25.00822 6.33348,4.85758 20.56223,18.88918 24.83208,24.48801 2.04855,2.68618 3.88868,4.87496 4.08914,4.86396 0.20047,-0.011 3.04839,-4.53986 6.3287,-10.06413 16.46999,-27.73659 35.59854,-45.71745 61.89294,-58.17944 15.18201,-7.19538 24.85761,-9.62826 44.00744,-11.06544 26.62547,-1.99822 46.38773,1.41631 68.19727,11.78314 37.7738,17.95521 65.1005,52.7726 74.00973,94.297 1.33489,6.22171 1.53093,9.31748 1.47224,23.24887 -0.10454,24.81648 -1.43743,33.2159 -7.82103,49.28572 -3.82093,9.6186 -7.95891,17.9986 -13.01837,26.364 -1.99815,3.30378 -3.633,6.68307 -3.633,7.50954 0,0.82647 1.15821,3.22251 2.57379,5.32453 3.98318,5.91468 10.52408,18.87757 14.10058,27.94478 6.3713,16.15272 7.6658,24.33184 7.78456,49.18557 0.0671,14.0481 -0.12469,17.11403 -1.46073,23.34902 -3.94551,18.41273 -11.57795,35.66933 -22.97353,51.94211 -6.06884,8.66623 -22.66768,25.24972 -31.2912,31.26225 -17.54212,12.2308 -36.67552,19.78377 -56.73283,22.39546 -8.68254,1.13056 -20.37654,1.77519 -25.57207,1.40966 z m 24.6908,-57.03832 c 24.83451,-6.29979 47.02342,-26.97681 55.19516,-51.43432 3.05662,-9.14828 3.89306,-15.64571 3.48833,-27.097 -0.41012,-11.60325 -1.61319,-17.50669 -5.61364,-27.54586 -3.69322,-9.26815 -8.00723,-15.35914 -17.70653,-25 -7.8171,-7.77 -9.98988,-9.48468 -16.74469,-13.21428 -9.96896,-5.50427 -11.88086,-7.40013 -11.88086,-11.78119 0,-4.17722 2.15229,-6.40811 10.71429,-11.10562 7.68504,-4.21636 11.88733,-7.39138 18.41469,-13.91316 12.7394,-12.72853 19.44563,-25.86261 22.31433,-43.70243 1.42064,-8.83467 0.58864,-23.75294 -1.76461,-31.64046 -4.10693,-13.76543 -9.8269,-23.85426 -18.99874,-33.50982 -30.16374,-31.75457 -80.05083,-32.37554 -111.56701,-1.38871 -6.53576,6.42598 -10.37552,11.88471 -14.77146,20.9996 -4.4075,9.13883 -5.48952,13.23957 -6.55943,24.85942 -1.11936,12.15694 -1.06942,169.96305 0.0573,181.0206 0.77644,7.62006 3.32035,16.471 6.616,23.01891 5.17525,10.28233 14.65572,21.73143 23.29885,28.13689 11.96969,8.8708 22.55843,12.82458 41.17438,15.37431 4.86998,0.66702 17.90145,-0.44522 24.33365,-2.07688 z m -351.3915,-22.88185 c 17.91735,-3.07982 26.29788,-8.4299 52.77213,-33.68944 18.29721,-17.45769 84.90114,-84.51172 97.20879,-97.86573 16.50518,-17.90838 20.9784,-24.84903 24.30498,-37.71158 2.68455,-10.38005 3.14526,-25.73387 1.07166,-35.71429 -3.43234,-16.52014 -10.69178,-29.63694 -22.81011,-41.21472 -20.30744,-19.40162 -46.48935,-25.88503 -74.7196,-18.50278 -19.01,4.97114 -23.15892,8.46429 -92.12367,77.56256 -49.23967,49.33501 -61.593363,62.26908 -66.444041,69.56553 -6.239827,9.38605 -10.918364,24.38611 -11.62955,37.28602 -2.050497,37.19308 24.770061,72.17857 61.570111,80.31382 5.98296,1.32263 23.02829,1.30636 30.7993,-0.0294 z" style="fill:#ffffff;stroke-width:2.59428573;stroke-linecap:square;stroke-linejoin:bevel;paint-order:fill markers stroke;fill-opacity:1"/>
      <path style="fill:#ffffff;fill-opacity:1;stroke-width:0.68640476;stroke-linecap:square;stroke-linejoin:bevel;paint-order:fill markers stroke" d="m 151.18253,161.37846 c -4.11065,-0.28922 -8.25667,-1.14978 -11.24479,-2.33401 -2.36699,-0.93807 -5.69091,-2.73046 -7.63889,-4.1192 -6.35307,-4.52918 -11.67249,-12.10075 -13.53348,-19.26333 -0.82109,-3.16018 -1.0385,-5.56219 -1.23441,-13.63785 -0.1018,-4.19678 -0.25752,-7.75992 -0.34602,-7.91807 -0.1247,-0.22282 -3.0914,2.6181 -13.17802,12.61929 -16.150882,16.01409 -21.669263,21.30174 -23.505934,22.52314 -3.443094,2.28968 -9.202335,4.64837 -13.134673,5.37929 -2.707063,0.50317 -10.75517,0.50852 -13.212204,0.009 C 41.248784,152.01188 30.5529,142.1415 27.000808,129.57908 c -0.843746,-2.98401 -1.11501,-5.16038 -1.116268,-8.95589 -0.0023,-7.04438 0.841466,-10.89258 3.594687,-16.39379 1.546511,-3.09008 3.122555,-5.35112 5.573604,-7.996075 2.333892,-2.518529 21.913979,-22.057847 27.494284,-27.43704 5.198698,-5.011333 8.285036,-7.80628 9.449406,-8.557247 3.259312,-2.102117 7.96072,-3.966853 12.095237,-4.797374 1.923798,-0.386445 2.715897,-0.43661 6.898065,-0.436862 4.232056,-2.64e-4 4.95132,0.04637 6.898066,0.447188 5.325671,1.096502 10.122391,3.291803 14.457591,6.616758 1.67573,1.285235 5.44042,4.997763 6.57015,6.47912 0.54202,0.710718 1.02888,1.289833 1.08192,1.286922 0.053,-0.0029 0.80655,-1.201171 1.67447,-2.662801 4.35769,-7.338639 9.41878,-12.096075 16.37584,-15.39331 4.01691,-1.903777 6.57691,-2.547477 11.64364,-2.927731 7.04465,-0.528695 12.27342,0.374733 18.04386,3.117623 9.99431,4.750649 17.2245,13.96275 19.58174,24.949414 0.35319,1.646161 0.40506,2.46525 0.38953,6.151264 -0.0277,6.566027 -0.38032,8.788373 -2.06932,13.04018 -1.01095,2.544921 -2.10579,4.762131 -3.44444,6.975471 -0.52868,0.87413 -0.96123,1.76823 -0.96123,1.9869 0,0.21867 0.30644,0.85262 0.68098,1.40878 1.05388,1.56493 2.7845,4.99469 3.73078,7.39373 1.68574,4.27374 2.02824,6.4378 2.05966,13.01368 0.0178,3.71689 -0.033,4.52809 -0.38648,6.17776 -1.04392,4.8717 -3.06333,9.43751 -6.07841,13.74302 -1.60572,2.29294 -5.99749,6.68065 -8.27913,8.27147 -4.64136,3.23606 -9.70374,5.23445 -15.01057,5.92546 -2.29725,0.29913 -5.39129,0.46969 -6.76594,0.37298 z m 6.53278,-15.09139 c 6.57079,-1.66682 12.44161,-7.13761 14.60371,-13.60866 0.80873,-2.42049 1.03004,-4.1396 0.92296,-7.16942 -0.10851,-3.07003 -0.42682,-4.63198 -1.48528,-7.28817 -0.97716,-2.4522 -2.11858,-4.06378 -4.68485,-6.61459 -2.06827,-2.05581 -2.64316,-2.50949 -4.43037,-3.49628 -2.63762,-1.45633 -3.14347,-1.95795 -3.14347,-3.1171 0,-1.10522 0.56946,-1.69548 2.83482,-2.93836 2.03333,-1.11558 3.14519,-1.95564 4.87222,-3.681194 3.37063,-3.367757 5.14499,-6.842816 5.904,-11.562935 0.37588,-2.337506 0.15574,-6.284632 -0.46689,-8.371538 -1.08662,-3.642103 -2.60003,-6.31144 -5.02675,-8.86614 -7.98082,-8.40173 -21.18011,-8.566028 -29.51877,-0.367429 -1.72925,1.700207 -2.74519,3.144496 -3.90828,5.556144 -1.16615,2.417982 -1.45244,3.502969 -1.73552,6.577388 -0.29616,3.216524 -0.28295,44.969394 0.0152,47.895034 0.20544,2.01614 0.87851,4.35795 1.75049,6.09042 1.36928,2.72053 3.87766,5.74977 6.16448,7.44455 3.16699,2.34707 5.96859,3.39317 10.89406,4.06779 1.28852,0.17648 4.73642,-0.1178 6.43828,-0.54951 z m -92.972338,-6.05416 c 4.740632,-0.81487 6.95798,-2.23041 13.962626,-8.91366 4.841136,-4.61901 22.463422,-22.36039 25.719822,-25.89364 4.367,-4.73826 5.55054,-6.574641 6.4307,-9.977857 0.71028,-2.746388 0.83218,-6.808753 0.28354,-9.449406 -0.90814,-4.370954 -2.82887,-7.84144 -6.03518,-10.904728 -5.373006,-5.133345 -12.300303,-6.848747 -19.769556,-4.895527 -5.02973,1.315281 -6.127465,2.23951 -24.374388,20.52176 -13.027996,13.053218 -16.296577,16.475358 -17.579985,18.405878 -1.650955,2.48339 -2.888818,6.45216 -3.076986,9.86526 -0.542527,9.84067 6.553746,19.09725 16.290425,21.2497 1.582992,0.34995 6.092902,0.34564 8.148982,-0.008 z" id="path4400"/>
      <path id="path4402" d="m 150.65336,161.37846 c -4.11065,-0.28922 -8.25667,-1.14978 -11.24479,-2.33401 -2.36699,-0.93807 -5.69091,-2.73046 -7.63889,-4.1192 -6.35307,-4.52918 -11.67249,-12.10075 -13.53348,-19.26333 -0.82109,-3.16018 -1.0385,-5.56219 -1.23441,-13.63785 -0.1018,-4.19678 -0.25752,-7.75992 -0.34602,-7.91807 -0.1247,-0.22282 -3.0914,2.6181 -13.17802,12.61929 -16.150879,16.01409 -21.66926,21.30174 -23.505931,22.52314 -3.443094,2.28968 -9.202335,4.64837 -13.134673,5.37929 -2.707063,0.50317 -10.75517,0.50852 -13.212204,0.009 -12.905325,-2.62484 -23.601209,-12.49522 -27.153301,-25.05764 -0.843746,-2.98401 -1.11501,-5.16038 -1.116268,-8.95589 -0.0023,-7.04438 0.841466,-10.89258 3.594687,-16.39379 1.546511,-3.09008 3.122555,-5.35112 5.573604,-7.996075 2.333892,-2.518529 21.913979,-22.057847 27.494284,-27.43704 5.198698,-5.011333 8.285036,-7.80628 9.449406,-8.557247 3.259312,-2.102117 7.96072,-3.966853 12.095237,-4.797374 1.923798,-0.386445 2.715897,-0.43661 6.898065,-0.436862 4.232056,-2.64e-4 4.95132,0.04637 6.898066,0.447188 5.325668,1.096502 10.122388,3.291803 14.457588,6.616758 1.67573,1.285235 5.44042,4.997763 6.57015,6.47912 0.54202,0.710718 1.02888,1.289833 1.08192,1.286922 0.053,-0.0029 0.80655,-1.201171 1.67447,-2.662801 4.35769,-7.338639 9.41878,-12.096075 16.37584,-15.39331 4.01691,-1.903777 6.57691,-2.547477 11.64364,-2.927731 7.04465,-0.528695 12.27342,0.374733 18.04386,3.117623 9.99431,4.750649 17.2245,13.96275 19.58174,24.949414 0.35319,1.646161 0.40506,2.46525 0.38953,6.151264 -0.0277,6.566027 -0.38032,8.788373 -2.06932,13.04018 -1.01095,2.544921 -2.10579,4.762131 -3.44444,6.975471 -0.52868,0.87413 -0.96123,1.76823 -0.96123,1.9869 0,0.21867 0.30644,0.85262 0.68098,1.40878 1.05388,1.56493 2.7845,4.99469 3.73078,7.39373 1.68574,4.27374 2.02824,6.4378 2.05966,13.01368 0.0178,3.71689 -0.033,4.52809 -0.38648,6.17776 -1.04392,4.8717 -3.06333,9.43751 -6.07841,13.74302 -1.60572,2.29294 -5.99749,6.68065 -8.27913,8.27147 -4.64136,3.23606 -9.70374,5.23445 -15.01057,5.92546 -2.29725,0.29913 -5.39129,0.46969 -6.76594,0.37298 z m 6.53278,-15.09139 c 6.57079,-1.66682 12.44161,-7.13761 14.60371,-13.60866 0.80873,-2.42049 1.03004,-4.1396 0.92296,-7.16942 -0.10851,-3.07003 -0.42682,-4.63198 -1.48528,-7.28817 -0.97716,-2.4522 -2.11858,-4.06378 -4.68485,-6.61459 -2.06827,-2.05581 -2.64316,-2.50949 -4.43037,-3.49628 -2.63762,-1.45633 -3.14347,-1.95795 -3.14347,-3.1171 0,-1.10522 0.56946,-1.69548 2.83482,-2.93836 2.03333,-1.11558 3.14519,-1.95564 4.87222,-3.681194 3.37063,-3.367757 5.14499,-6.842816 5.904,-11.562935 0.37588,-2.337506 0.15574,-6.284632 -0.46689,-8.371538 -1.08662,-3.642103 -2.60003,-6.31144 -5.02675,-8.86614 -7.98082,-8.40173 -21.18011,-8.566028 -29.51877,-0.367429 -1.72925,1.700207 -2.74519,3.144496 -3.90828,5.556144 -1.16615,2.417982 -1.45244,3.502969 -1.73552,6.577388 -0.29616,3.216524 -0.28295,44.969394 0.0152,47.895034 0.20544,2.01614 0.87851,4.35795 1.75049,6.09042 1.36928,2.72053 3.87766,5.74977 6.16448,7.44455 3.16699,2.34707 5.96859,3.39317 10.89406,4.06779 1.28852,0.17648 4.73642,-0.1178 6.43828,-0.54951 z m -92.972335,-6.05416 c 4.740632,-0.81487 6.95798,-2.23041 13.962626,-8.91366 4.841136,-4.61901 22.463419,-22.36039 25.719819,-25.89364 4.367,-4.73826 5.55054,-6.574641 6.4307,-9.977857 0.71028,-2.746388 0.83218,-6.808753 0.28354,-9.449406 -0.90814,-4.370954 -2.82887,-7.84144 -6.03518,-10.904728 -5.373003,-5.133345 -12.3003,-6.848747 -19.769553,-4.895527 -5.02973,1.315281 -6.127465,2.23951 -24.374388,20.52176 -13.027996,13.053218 -16.296577,16.475358 -17.579985,18.405878 -1.650955,2.48339 -2.888818,6.45216 -3.076986,9.86526 -0.542527,9.84067 6.553746,19.09725 16.290425,21.2497 1.582992,0.34995 6.092902,0.34564 8.148982,-0.008 z" style="fill:#ffffff;fill-opacity:1;stroke-width:0.68640476;stroke-linecap:square;stroke-linejoin:bevel;paint-order:fill markers stroke"/>
      <path style="fill:#ffffff;fill-opacity:1;stroke-width:0.68640476;stroke-linecap:square;stroke-linejoin:bevel;paint-order:fill markers stroke" d="m 150.65336,161.90763 c -4.11065,-0.28922 -8.25667,-1.14978 -11.24479,-2.33401 -2.36699,-0.93807 -5.69091,-2.73046 -7.63889,-4.1192 -6.35307,-4.52918 -11.67249,-12.10075 -13.53348,-19.26333 -0.82109,-3.16018 -1.0385,-5.56219 -1.23441,-13.63785 -0.1018,-4.19678 -0.25752,-7.75992 -0.34602,-7.91807 -0.1247,-0.22282 -3.0914,2.6181 -13.17802,12.61929 -16.150879,16.01409 -21.66926,21.30174 -23.505931,22.52314 -3.443094,2.28968 -9.202335,4.64837 -13.134673,5.37929 -2.707063,0.50317 -10.75517,0.50852 -13.212204,0.009 -12.905325,-2.62484 -23.601209,-12.49522 -27.153301,-25.05764 -0.843746,-2.98401 -1.11501,-5.16038 -1.116268,-8.95589 -0.0023,-7.04438 0.841466,-10.89258 3.594687,-16.39379 1.546511,-3.09008 3.122555,-5.351123 5.573604,-7.996078 2.333892,-2.518529 21.913979,-22.057847 27.494284,-27.43704 5.198698,-5.011333 8.285036,-7.80628 9.449406,-8.557247 3.259312,-2.102117 7.96072,-3.966853 12.095237,-4.797374 1.923798,-0.386445 2.715897,-0.43661 6.898065,-0.436862 4.232056,-2.64e-4 4.95132,0.04637 6.898066,0.447188 5.325668,1.096502 10.122388,3.291803 14.457588,6.616758 1.67573,1.285235 5.44042,4.997763 6.57015,6.47912 0.54202,0.710718 1.02888,1.289833 1.08192,1.286922 0.053,-0.0029 0.80655,-1.201171 1.67447,-2.662801 4.35769,-7.338639 9.41878,-12.096075 16.37584,-15.39331 4.01691,-1.903777 6.57691,-2.547477 11.64364,-2.927731 7.04465,-0.528695 12.27342,0.374733 18.04386,3.117623 9.99431,4.750649 17.2245,13.96275 19.58174,24.949414 0.35319,1.646161 0.40506,2.46525 0.38953,6.151264 -0.0277,6.566027 -0.38032,8.788373 -2.06932,13.04018 -1.01095,2.544921 -2.10579,4.762134 -3.44444,6.975474 -0.52868,0.87413 -0.96123,1.76823 -0.96123,1.9869 0,0.21867 0.30644,0.85262 0.68098,1.40878 1.05388,1.56493 2.7845,4.99469 3.73078,7.39373 1.68574,4.27374 2.02824,6.4378 2.05966,13.01368 0.0178,3.71689 -0.033,4.52809 -0.38648,6.17776 -1.04392,4.8717 -3.06333,9.43751 -6.07841,13.74302 -1.60572,2.29294 -5.99749,6.68065 -8.27913,8.27147 -4.64136,3.23606 -9.70374,5.23445 -15.01057,5.92546 -2.29725,0.29913 -5.39129,0.46969 -6.76594,0.37298 z m 6.53278,-15.09139 c 6.57079,-1.66682 12.44161,-7.13761 14.60371,-13.60866 0.80873,-2.42049 1.03004,-4.1396 0.92296,-7.16942 -0.10851,-3.07003 -0.42682,-4.63198 -1.48528,-7.28817 -0.97716,-2.4522 -2.11858,-4.06378 -4.68485,-6.61459 -2.06827,-2.05581 -2.64316,-2.50949 -4.43037,-3.49628 -2.63762,-1.45633 -3.14347,-1.95795 -3.14347,-3.1171 0,-1.10522 0.56946,-1.69548 2.83482,-2.93836 2.03333,-1.11558 3.14519,-1.95564 4.87222,-3.681197 3.37063,-3.367757 5.14499,-6.842816 5.904,-11.562935 0.37588,-2.337506 0.15574,-6.284632 -0.46689,-8.371538 -1.08662,-3.642103 -2.60003,-6.31144 -5.02675,-8.86614 -7.98082,-8.40173 -21.18011,-8.566028 -29.51877,-0.367429 -1.72925,1.700207 -2.74519,3.144496 -3.90828,5.556144 -1.16615,2.417982 -1.45244,3.502969 -1.73552,6.577388 -0.29616,3.216524 -0.28295,44.969397 0.0152,47.895037 0.20544,2.01614 0.87851,4.35795 1.75049,6.09042 1.36928,2.72053 3.87766,5.74977 6.16448,7.44455 3.16699,2.34707 5.96859,3.39317 10.89406,4.06779 1.28852,0.17648 4.73642,-0.1178 6.43828,-0.54951 z m -92.972335,-6.05416 c 4.740632,-0.81487 6.95798,-2.23041 13.962626,-8.91366 4.841136,-4.61901 22.463419,-22.36039 25.719819,-25.89364 4.367,-4.73826 5.55054,-6.574644 6.4307,-9.97786 0.71028,-2.746388 0.83218,-6.808753 0.28354,-9.449406 -0.90814,-4.370954 -2.82887,-7.84144 -6.03518,-10.904728 -5.373003,-5.133345 -12.3003,-6.848747 -19.769553,-4.895527 -5.02973,1.315281 -6.127465,2.23951 -24.374388,20.52176 -13.027996,13.053221 -16.296577,16.475361 -17.579985,18.405881 -1.650955,2.48339 -2.888818,6.45216 -3.076986,9.86526 -0.542527,9.84067 6.553746,19.09725 16.290425,21.2497 1.582992,0.34995 6.092902,0.34564 8.148982,-0.008 z" id="path4404"/>
      <path id="path4406" d="m 150.65336,162.4368 c -4.11065,-0.28922 -8.25667,-1.14978 -11.24479,-2.33401 -2.36699,-0.93807 -5.69091,-2.73046 -7.63889,-4.1192 -6.35307,-4.52918 -11.67249,-12.10075 -13.53348,-19.26333 -0.82109,-3.16018 -1.0385,-5.56219 -1.23441,-13.63785 -0.1018,-4.19678 -0.25752,-7.75992 -0.34602,-7.91807 -0.1247,-0.22282 -3.0914,2.6181 -13.17802,12.61929 -16.150879,16.01409 -21.66926,21.30174 -23.505931,22.52314 -3.443094,2.28968 -9.202335,4.64837 -13.134673,5.37929 -2.707063,0.50317 -10.75517,0.50852 -13.212204,0.009 -12.905325,-2.62484 -23.601209,-12.49522 -27.153301,-25.05764 -0.843746,-2.98401 -1.11501,-5.16038 -1.116268,-8.95589 -0.0023,-7.04438 0.841466,-10.89258 3.594687,-16.39379 1.546511,-3.09008 3.122555,-5.351126 5.573604,-7.996081 2.333892,-2.518529 21.913979,-22.057847 27.494284,-27.43704 5.198698,-5.011333 8.285036,-7.80628 9.449406,-8.557247 3.259312,-2.102117 7.96072,-3.966853 12.095237,-4.797374 1.923798,-0.386445 2.715897,-0.43661 6.898065,-0.436862 4.232056,-2.64e-4 4.95132,0.04637 6.898066,0.447188 5.325668,1.096502 10.122388,3.291803 14.457588,6.616758 1.67573,1.285235 5.44042,4.997763 6.57015,6.47912 0.54202,0.710718 1.02888,1.289833 1.08192,1.286922 0.053,-0.0029 0.80655,-1.201171 1.67447,-2.662801 4.35769,-7.338639 9.41878,-12.096075 16.37584,-15.39331 4.01691,-1.903777 6.57691,-2.547477 11.64364,-2.927731 7.04465,-0.528695 12.27342,0.374733 18.04386,3.117623 9.99431,4.750649 17.2245,13.96275 19.58174,24.949414 0.35319,1.646161 0.40506,2.46525 0.38953,6.151264 -0.0277,6.566027 -0.38032,8.788373 -2.06932,13.04018 -1.01095,2.544921 -2.10579,4.762137 -3.44444,6.975477 -0.52868,0.87413 -0.96123,1.76823 -0.96123,1.9869 0,0.21867 0.30644,0.85262 0.68098,1.40878 1.05388,1.56493 2.7845,4.99469 3.73078,7.39373 1.68574,4.27374 2.02824,6.4378 2.05966,13.01368 0.0178,3.71689 -0.033,4.52809 -0.38648,6.17776 -1.04392,4.8717 -3.06333,9.43751 -6.07841,13.74302 -1.60572,2.29294 -5.99749,6.68065 -8.27913,8.27147 -4.64136,3.23606 -9.70374,5.23445 -15.01057,5.92546 -2.29725,0.29913 -5.39129,0.46969 -6.76594,0.37298 z m 6.53278,-15.09139 c 6.57079,-1.66682 12.44161,-7.13761 14.60371,-13.60866 0.80873,-2.42049 1.03004,-4.1396 0.92296,-7.16942 -0.10851,-3.07003 -0.42682,-4.63198 -1.48528,-7.28817 -0.97716,-2.4522 -2.11858,-4.06378 -4.68485,-6.61459 -2.06827,-2.05581 -2.64316,-2.50949 -4.43037,-3.49628 -2.63762,-1.45633 -3.14347,-1.95795 -3.14347,-3.1171 0,-1.10522 0.56946,-1.69548 2.83482,-2.93836 2.03333,-1.11558 3.14519,-1.95564 4.87222,-3.6812 3.37063,-3.367757 5.14499,-6.842816 5.904,-11.562935 0.37588,-2.337506 0.15574,-6.284632 -0.46689,-8.371538 -1.08662,-3.642103 -2.60003,-6.31144 -5.02675,-8.86614 -7.98082,-8.40173 -21.18011,-8.566028 -29.51877,-0.367429 -1.72925,1.700207 -2.74519,3.144496 -3.90828,5.556144 -1.16615,2.417982 -1.45244,3.502969 -1.73552,6.577388 -0.29616,3.216524 -0.28295,44.9694 0.0152,47.89504 0.20544,2.01614 0.87851,4.35795 1.75049,6.09042 1.36928,2.72053 3.87766,5.74977 6.16448,7.44455 3.16699,2.34707 5.96859,3.39317 10.89406,4.06779 1.28852,0.17648 4.73642,-0.1178 6.43828,-0.54951 z m -92.972335,-6.05416 c 4.740632,-0.81487 6.95798,-2.23041 13.962626,-8.91366 4.841136,-4.61901 22.463419,-22.36039 25.719819,-25.89364 4.367,-4.73826 5.55054,-6.574647 6.4307,-9.977863 0.71028,-2.746388 0.83218,-6.808753 0.28354,-9.449406 -0.90814,-4.370954 -2.82887,-7.84144 -6.03518,-10.904728 -5.373003,-5.133345 -12.3003,-6.848747 -19.769553,-4.895527 -5.02973,1.315281 -6.127465,2.23951 -24.374388,20.52176 -13.027996,13.053224 -16.296577,16.475364 -17.579985,18.405884 -1.650955,2.48339 -2.888818,6.45216 -3.076986,9.86526 -0.542527,9.84067 6.553746,19.09725 16.290425,21.2497 1.582992,0.34995 6.092902,0.34564 8.148982,-0.008 z" style="fill:#ffffff;fill-opacity:1;stroke-width:0.68640476;stroke-linecap:square;stroke-linejoin:bevel;paint-order:fill markers stroke"/>
      <path style="fill:#ffffff;fill-opacity:1;stroke-width:0.68640476;stroke-linecap:square;stroke-linejoin:bevel;paint-order:fill markers stroke" d="m 151.18253,162.4368 c -4.11065,-0.28922 -8.25667,-1.14978 -11.24479,-2.33401 -2.36699,-0.93807 -5.69091,-2.73046 -7.63889,-4.1192 -6.35307,-4.52918 -11.67249,-12.10075 -13.53348,-19.26333 -0.82109,-3.16018 -1.0385,-5.56219 -1.23441,-13.63785 -0.1018,-4.19678 -0.25752,-7.75992 -0.34602,-7.91807 -0.1247,-0.22282 -3.0914,2.6181 -13.17802,12.61929 -16.150882,16.01409 -21.669263,21.30174 -23.505934,22.52314 -3.443094,2.28968 -9.202335,4.64837 -13.134673,5.37929 -2.707063,0.50317 -10.75517,0.50852 -13.212204,0.009 -12.905325,-2.62484 -23.601209,-12.49522 -27.153301,-25.05764 -0.843746,-2.98401 -1.11501,-5.16038 -1.116268,-8.95589 -0.0023,-7.04438 0.841466,-10.89258 3.594687,-16.39379 1.546511,-3.09008 3.122555,-5.351126 5.573604,-7.996081 2.333892,-2.518529 21.913979,-22.057847 27.494284,-27.43704 5.198698,-5.011333 8.285036,-7.80628 9.449406,-8.557247 3.259312,-2.102117 7.96072,-3.966853 12.095237,-4.797374 1.923798,-0.386445 2.715897,-0.43661 6.898065,-0.436862 4.232056,-2.64e-4 4.95132,0.04637 6.898066,0.447188 5.325671,1.096502 10.122391,3.291803 14.457591,6.616758 1.67573,1.285235 5.44042,4.997763 6.57015,6.47912 0.54202,0.710718 1.02888,1.289833 1.08192,1.286922 0.053,-0.0029 0.80655,-1.201171 1.67447,-2.662801 4.35769,-7.338639 9.41878,-12.096075 16.37584,-15.39331 4.01691,-1.903777 6.57691,-2.547477 11.64364,-2.927731 7.04465,-0.528695 12.27342,0.374733 18.04386,3.117623 9.99431,4.750649 17.2245,13.96275 19.58174,24.949414 0.35319,1.646161 0.40506,2.46525 0.38953,6.151264 -0.0277,6.566027 -0.38032,8.788373 -2.06932,13.04018 -1.01095,2.544921 -2.10579,4.762137 -3.44444,6.975477 -0.52868,0.87413 -0.96123,1.76823 -0.96123,1.9869 0,0.21867 0.30644,0.85262 0.68098,1.40878 1.05388,1.56493 2.7845,4.99469 3.73078,7.39373 1.68574,4.27374 2.02824,6.4378 2.05966,13.01368 0.0178,3.71689 -0.033,4.52809 -0.38648,6.17776 -1.04392,4.8717 -3.06333,9.43751 -6.07841,13.74302 -1.60572,2.29294 -5.99749,6.68065 -8.27913,8.27147 -4.64136,3.23606 -9.70374,5.23445 -15.01057,5.92546 -2.29725,0.29913 -5.39129,0.46969 -6.76594,0.37298 z m 6.53278,-15.09139 c 6.57079,-1.66682 12.44161,-7.13761 14.60371,-13.60866 0.80873,-2.42049 1.03004,-4.1396 0.92296,-7.16942 -0.10851,-3.07003 -0.42682,-4.63198 -1.48528,-7.28817 -0.97716,-2.4522 -2.11858,-4.06378 -4.68485,-6.61459 -2.06827,-2.05581 -2.64316,-2.50949 -4.43037,-3.49628 -2.63762,-1.45633 -3.14347,-1.95795 -3.14347,-3.1171 0,-1.10522 0.56946,-1.69548 2.83482,-2.93836 2.03333,-1.11558 3.14519,-1.95564 4.87222,-3.6812 3.37063,-3.367757 5.14499,-6.842816 5.904,-11.562935 0.37588,-2.337506 0.15574,-6.284632 -0.46689,-8.371538 -1.08662,-3.642103 -2.60003,-6.31144 -5.02675,-8.86614 -7.98082,-8.40173 -21.18011,-8.566028 -29.51877,-0.367429 -1.72925,1.700207 -2.74519,3.144496 -3.90828,5.556144 -1.16615,2.417982 -1.45244,3.502969 -1.73552,6.577388 -0.29616,3.216524 -0.28295,44.9694 0.0152,47.89504 0.20544,2.01614 0.87851,4.35795 1.75049,6.09042 1.36928,2.72053 3.87766,5.74977 6.16448,7.44455 3.16699,2.34707 5.96859,3.39317 10.89406,4.06779 1.28852,0.17648 4.73642,-0.1178 6.43828,-0.54951 z m -92.972338,-6.05416 c 4.740632,-0.81487 6.95798,-2.23041 13.962626,-8.91366 4.841136,-4.61901 22.463422,-22.36039 25.719822,-25.89364 4.367,-4.73826 5.55054,-6.574647 6.4307,-9.977863 0.71028,-2.746388 0.83218,-6.808753 0.28354,-9.449406 -0.90814,-4.370954 -2.82887,-7.84144 -6.03518,-10.904728 -5.373006,-5.133345 -12.300303,-6.848747 -19.769556,-4.895527 -5.02973,1.315281 -6.127465,2.23951 -24.374388,20.52176 -13.027996,13.053224 -16.296577,16.475364 -17.579985,18.405884 -1.650955,2.48339 -2.888818,6.45216 -3.076986,9.86526 -0.542527,9.84067 6.553746,19.09725 16.290425,21.2497 1.582992,0.34995 6.092902,0.34564 8.148982,-0.008 z" id="path4408"/>
      <path id="path4410" d="m 151.7117,162.4368 c -4.11065,-0.28922 -8.25667,-1.14978 -11.24479,-2.33401 -2.36699,-0.93807 -5.69091,-2.73046 -7.63889,-4.1192 -6.35307,-4.52918 -11.67249,-12.10075 -13.53348,-19.26333 -0.82109,-3.16018 -1.0385,-5.56219 -1.23441,-13.63785 -0.1018,-4.19678 -0.25752,-7.75992 -0.34602,-7.91807 -0.1247,-0.22282 -3.0914,2.6181 -13.17802,12.61929 -16.150885,16.01409 -21.669266,21.30174 -23.505937,22.52314 -3.443094,2.28968 -9.202335,4.64837 -13.134673,5.37929 -2.707063,0.50317 -10.75517,0.50852 -13.212204,0.009 -12.905325,-2.62484 -23.601209,-12.49522 -27.153301,-25.05764 -0.843746,-2.98401 -1.11501,-5.16038 -1.116268,-8.95589 -0.0023,-7.04438 0.841466,-10.89258 3.594687,-16.39379 1.546511,-3.09008 3.122555,-5.351126 5.573604,-7.996081 2.333892,-2.518529 21.913979,-22.057847 27.494284,-27.43704 5.198698,-5.011333 8.285036,-7.80628 9.449406,-8.557247 3.259312,-2.102117 7.96072,-3.966853 12.095237,-4.797374 1.923798,-0.386445 2.715897,-0.43661 6.898065,-0.436862 4.232056,-2.64e-4 4.95132,0.04637 6.898066,0.447188 5.325674,1.096502 10.122394,3.291803 14.457594,6.616758 1.67573,1.285235 5.44042,4.997763 6.57015,6.47912 0.54202,0.710718 1.02888,1.289833 1.08192,1.286922 0.053,-0.0029 0.80655,-1.201171 1.67447,-2.662801 4.35769,-7.338639 9.41878,-12.096075 16.37584,-15.39331 4.01691,-1.903777 6.57691,-2.547477 11.64364,-2.927731 7.04465,-0.528695 12.27342,0.374733 18.04386,3.117623 9.99431,4.750649 17.2245,13.96275 19.58174,24.949414 0.35319,1.646161 0.40506,2.46525 0.38953,6.151264 -0.0277,6.566027 -0.38032,8.788373 -2.06932,13.04018 -1.01095,2.544921 -2.10579,4.762137 -3.44444,6.975477 -0.52868,0.87413 -0.96123,1.76823 -0.96123,1.9869 0,0.21867 0.30644,0.85262 0.68098,1.40878 1.05388,1.56493 2.7845,4.99469 3.73078,7.39373 1.68574,4.27374 2.02824,6.4378 2.05966,13.01368 0.0178,3.71689 -0.033,4.52809 -0.38648,6.17776 -1.04392,4.8717 -3.06333,9.43751 -6.07841,13.74302 -1.60572,2.29294 -5.99749,6.68065 -8.27913,8.27147 -4.64136,3.23606 -9.70374,5.23445 -15.01057,5.92546 -2.29725,0.29913 -5.39129,0.46969 -6.76594,0.37298 z m 6.53278,-15.09139 c 6.57079,-1.66682 12.44161,-7.13761 14.60371,-13.60866 0.80873,-2.42049 1.03004,-4.1396 0.92296,-7.16942 -0.10851,-3.07003 -0.42682,-4.63198 -1.48528,-7.28817 -0.97716,-2.4522 -2.11858,-4.06378 -4.68485,-6.61459 -2.06827,-2.05581 -2.64316,-2.50949 -4.43037,-3.49628 -2.63762,-1.45633 -3.14347,-1.95795 -3.14347,-3.1171 0,-1.10522 0.56946,-1.69548 2.83482,-2.93836 2.03333,-1.11558 3.14519,-1.95564 4.87222,-3.6812 3.37063,-3.367757 5.14499,-6.842816 5.904,-11.562935 0.37588,-2.337506 0.15574,-6.284632 -0.46689,-8.371538 -1.08662,-3.642103 -2.60003,-6.31144 -5.02675,-8.86614 -7.98082,-8.40173 -21.18011,-8.566028 -29.51877,-0.367429 -1.72925,1.700207 -2.74519,3.144496 -3.90828,5.556144 -1.16615,2.417982 -1.45244,3.502969 -1.73552,6.577388 -0.29616,3.216524 -0.28295,44.9694 0.0152,47.89504 0.20544,2.01614 0.87851,4.35795 1.75049,6.09042 1.36928,2.72053 3.87766,5.74977 6.16448,7.44455 3.16699,2.34707 5.96859,3.39317 10.89406,4.06779 1.28852,0.17648 4.73642,-0.1178 6.43828,-0.54951 z m -92.972341,-6.05416 c 4.740632,-0.81487 6.95798,-2.23041 13.962626,-8.91366 4.841136,-4.61901 22.463425,-22.36039 25.719825,-25.89364 4.367,-4.73826 5.55054,-6.574647 6.4307,-9.977863 0.71028,-2.746388 0.83218,-6.808753 0.28354,-9.449406 -0.90814,-4.370954 -2.82887,-7.84144 -6.03518,-10.904728 -5.37301,-5.133345 -12.300306,-6.848747 -19.769559,-4.895527 -5.02973,1.315281 -6.127465,2.23951 -24.374388,20.52176 -13.027996,13.053224 -16.296577,16.475364 -17.579985,18.405884 -1.650955,2.48339 -2.888818,6.45216 -3.076986,9.86526 -0.542527,9.84067 6.553746,19.09725 16.290425,21.2497 1.582992,0.34995 6.092902,0.34564 8.148982,-0.008 z" style="fill:#ffffff;fill-opacity:1;stroke-width:0.68640476;stroke-linecap:square;stroke-linejoin:bevel;paint-order:fill markers stroke"/>
      <path style="fill:#ffffff;fill-opacity:1;stroke-width:0.68640476;stroke-linecap:square;stroke-linejoin:bevel;paint-order:fill markers stroke" d="m 151.7117,161.90763 c -4.11065,-0.28922 -8.25667,-1.14978 -11.24479,-2.33401 -2.36699,-0.93807 -5.69091,-2.73046 -7.63889,-4.1192 -6.35307,-4.52918 -11.67249,-12.10075 -13.53348,-19.26333 -0.82109,-3.16018 -1.0385,-5.56219 -1.23441,-13.63785 -0.1018,-4.19678 -0.25752,-7.75992 -0.34602,-7.91807 -0.1247,-0.22282 -3.0914,2.6181 -13.17802,12.61929 -16.150885,16.01409 -21.669266,21.30174 -23.505937,22.52314 -3.443094,2.28968 -9.202335,4.64837 -13.134673,5.37929 -2.707063,0.50317 -10.75517,0.50852 -13.212204,0.009 -12.905325,-2.62484 -23.601209,-12.49522 -27.153301,-25.05764 -0.843746,-2.98401 -1.11501,-5.16038 -1.116268,-8.95589 -0.0023,-7.04438 0.841466,-10.89258 3.594687,-16.39379 1.546511,-3.09008 3.122555,-5.351123 5.573604,-7.996078 2.333892,-2.518529 21.913979,-22.057847 27.494284,-27.43704 5.198698,-5.011333 8.285036,-7.80628 9.449406,-8.557247 3.259312,-2.102117 7.96072,-3.966853 12.095237,-4.797374 1.923798,-0.386445 2.715897,-0.43661 6.898065,-0.436862 4.232056,-2.64e-4 4.95132,0.04637 6.898066,0.447188 5.325674,1.096502 10.122394,3.291803 14.457594,6.616758 1.67573,1.285235 5.44042,4.997763 6.57015,6.47912 0.54202,0.710718 1.02888,1.289833 1.08192,1.286922 0.053,-0.0029 0.80655,-1.201171 1.67447,-2.662801 4.35769,-7.338639 9.41878,-12.096075 16.37584,-15.39331 4.01691,-1.903777 6.57691,-2.547477 11.64364,-2.927731 7.04465,-0.528695 12.27342,0.374733 18.04386,3.117623 9.99431,4.750649 17.2245,13.96275 19.58174,24.949414 0.35319,1.646161 0.40506,2.46525 0.38953,6.151264 -0.0277,6.566027 -0.38032,8.788373 -2.06932,13.04018 -1.01095,2.544921 -2.10579,4.762134 -3.44444,6.975474 -0.52868,0.87413 -0.96123,1.76823 -0.96123,1.9869 0,0.21867 0.30644,0.85262 0.68098,1.40878 1.05388,1.56493 2.7845,4.99469 3.73078,7.39373 1.68574,4.27374 2.02824,6.4378 2.05966,13.01368 0.0178,3.71689 -0.033,4.52809 -0.38648,6.17776 -1.04392,4.8717 -3.06333,9.43751 -6.07841,13.74302 -1.60572,2.29294 -5.99749,6.68065 -8.27913,8.27147 -4.64136,3.23606 -9.70374,5.23445 -15.01057,5.92546 -2.29725,0.29913 -5.39129,0.46969 -6.76594,0.37298 z m 6.53278,-15.09139 c 6.57079,-1.66682 12.44161,-7.13761 14.60371,-13.60866 0.80873,-2.42049 1.03004,-4.1396 0.92296,-7.16942 -0.10851,-3.07003 -0.42682,-4.63198 -1.48528,-7.28817 -0.97716,-2.4522 -2.11858,-4.06378 -4.68485,-6.61459 -2.06827,-2.05581 -2.64316,-2.50949 -4.43037,-3.49628 -2.63762,-1.45633 -3.14347,-1.95795 -3.14347,-3.1171 0,-1.10522 0.56946,-1.69548 2.83482,-2.93836 2.03333,-1.11558 3.14519,-1.95564 4.87222,-3.681197 3.37063,-3.367757 5.14499,-6.842816 5.904,-11.562935 0.37588,-2.337506 0.15574,-6.284632 -0.46689,-8.371538 -1.08662,-3.642103 -2.60003,-6.31144 -5.02675,-8.86614 -7.98082,-8.40173 -21.18011,-8.566028 -29.51877,-0.367429 -1.72925,1.700207 -2.74519,3.144496 -3.90828,5.556144 -1.16615,2.417982 -1.45244,3.502969 -1.73552,6.577388 -0.29616,3.216524 -0.28295,44.969397 0.0152,47.895037 0.20544,2.01614 0.87851,4.35795 1.75049,6.09042 1.36928,2.72053 3.87766,5.74977 6.16448,7.44455 3.16699,2.34707 5.96859,3.39317 10.89406,4.06779 1.28852,0.17648 4.73642,-0.1178 6.43828,-0.54951 z m -92.972341,-6.05416 c 4.740632,-0.81487 6.95798,-2.23041 13.962626,-8.91366 4.841136,-4.61901 22.463425,-22.36039 25.719825,-25.89364 4.367,-4.73826 5.55054,-6.574644 6.4307,-9.97786 0.71028,-2.746388 0.83218,-6.808753 0.28354,-9.449406 -0.90814,-4.370954 -2.82887,-7.84144 -6.03518,-10.904728 -5.37301,-5.133345 -12.300306,-6.848747 -19.769559,-4.895527 -5.02973,1.315281 -6.127465,2.23951 -24.374388,20.52176 -13.027996,13.053221 -16.296577,16.475361 -17.579985,18.405881 -1.650955,2.48339 -2.888818,6.45216 -3.076986,9.86526 -0.542527,9.84067 6.553746,19.09725 16.290425,21.2497 1.582992,0.34995 6.092902,0.34564 8.148982,-0.008 z" id="path4412"/>
      <path id="path4414" d="m 151.7117,161.37846 c -4.11065,-0.28922 -8.25667,-1.14978 -11.24479,-2.33401 -2.36699,-0.93807 -5.69091,-2.73046 -7.63889,-4.1192 -6.35307,-4.52918 -11.67249,-12.10075 -13.53348,-19.26333 -0.82109,-3.16018 -1.0385,-5.56219 -1.23441,-13.63785 -0.1018,-4.19678 -0.25752,-7.75992 -0.34602,-7.91807 -0.1247,-0.22282 -3.0914,2.6181 -13.17802,12.61929 -16.150885,16.01409 -21.669266,21.30174 -23.505937,22.52314 -3.443094,2.28968 -9.202335,4.64837 -13.134673,5.37929 -2.707063,0.50317 -10.75517,0.50852 -13.212204,0.009 -12.905325,-2.62484 -23.601209,-12.49522 -27.153301,-25.05764 -0.843746,-2.98401 -1.11501,-5.16038 -1.116268,-8.95589 -0.0023,-7.04438 0.841466,-10.89258 3.594687,-16.39379 1.546511,-3.09008 3.122555,-5.35112 5.573604,-7.996075 2.333892,-2.518529 21.913979,-22.057847 27.494284,-27.43704 5.198698,-5.011333 8.285036,-7.80628 9.449406,-8.557247 3.259312,-2.102117 7.96072,-3.966853 12.095237,-4.797374 1.923798,-0.386445 2.715897,-0.43661 6.898065,-0.436862 4.232056,-2.64e-4 4.95132,0.04637 6.898066,0.447188 5.325674,1.096502 10.122394,3.291803 14.457594,6.616758 1.67573,1.285235 5.44042,4.997763 6.57015,6.47912 0.54202,0.710718 1.02888,1.289833 1.08192,1.286922 0.053,-0.0029 0.80655,-1.201171 1.67447,-2.662801 4.35769,-7.338639 9.41878,-12.096075 16.37584,-15.39331 4.01691,-1.903777 6.57691,-2.547477 11.64364,-2.927731 7.04465,-0.528695 12.27342,0.374733 18.04386,3.117623 9.99431,4.750649 17.2245,13.96275 19.58174,24.949414 0.35319,1.646161 0.40506,2.46525 0.38953,6.151264 -0.0277,6.566027 -0.38032,8.788373 -2.06932,13.04018 -1.01095,2.544921 -2.10579,4.762131 -3.44444,6.975471 -0.52868,0.87413 -0.96123,1.76823 -0.96123,1.9869 0,0.21867 0.30644,0.85262 0.68098,1.40878 1.05388,1.56493 2.7845,4.99469 3.73078,7.39373 1.68574,4.27374 2.02824,6.4378 2.05966,13.01368 0.0178,3.71689 -0.033,4.52809 -0.38648,6.17776 -1.04392,4.8717 -3.06333,9.43751 -6.07841,13.74302 -1.60572,2.29294 -5.99749,6.68065 -8.27913,8.27147 -4.64136,3.23606 -9.70374,5.23445 -15.01057,5.92546 -2.29725,0.29913 -5.39129,0.46969 -6.76594,0.37298 z m 6.53278,-15.09139 c 6.57079,-1.66682 12.44161,-7.13761 14.60371,-13.60866 0.80873,-2.42049 1.03004,-4.1396 0.92296,-7.16942 -0.10851,-3.07003 -0.42682,-4.63198 -1.48528,-7.28817 -0.97716,-2.4522 -2.11858,-4.06378 -4.68485,-6.61459 -2.06827,-2.05581 -2.64316,-2.50949 -4.43037,-3.49628 -2.63762,-1.45633 -3.14347,-1.95795 -3.14347,-3.1171 0,-1.10522 0.56946,-1.69548 2.83482,-2.93836 2.03333,-1.11558 3.14519,-1.95564 4.87222,-3.681194 3.37063,-3.367757 5.14499,-6.842816 5.904,-11.562935 0.37588,-2.337506 0.15574,-6.284632 -0.46689,-8.371538 -1.08662,-3.642103 -2.60003,-6.31144 -5.02675,-8.86614 -7.98082,-8.40173 -21.18011,-8.566028 -29.51877,-0.367429 -1.72925,1.700207 -2.74519,3.144496 -3.90828,5.556144 -1.16615,2.417982 -1.45244,3.502969 -1.73552,6.577388 -0.29616,3.216524 -0.28295,44.969394 0.0152,47.895034 0.20544,2.01614 0.87851,4.35795 1.75049,6.09042 1.36928,2.72053 3.87766,5.74977 6.16448,7.44455 3.16699,2.34707 5.96859,3.39317 10.89406,4.06779 1.28852,0.17648 4.73642,-0.1178 6.43828,-0.54951 z m -92.972341,-6.05416 c 4.740632,-0.81487 6.95798,-2.23041 13.962626,-8.91366 4.841136,-4.61901 22.463425,-22.36039 25.719825,-25.89364 4.367,-4.73826 5.55054,-6.574641 6.4307,-9.977857 0.71028,-2.746388 0.83218,-6.808753 0.28354,-9.449406 -0.90814,-4.370954 -2.82887,-7.84144 -6.03518,-10.904728 -5.37301,-5.133345 -12.300306,-6.848747 -19.769559,-4.895527 -5.02973,1.315281 -6.127465,2.23951 -24.374388,20.52176 -13.027996,13.053218 -16.296577,16.475358 -17.579985,18.405878 -1.650955,2.48339 -2.888818,6.45216 -3.076986,9.86526 -0.542527,9.84067 6.553746,19.09725 16.290425,21.2497 1.582992,0.34995 6.092902,0.34564 8.148982,-0.008 z" style="fill:#ffffff;fill-opacity:1;stroke-width:0.68640476;stroke-linecap:square;stroke-linejoin:bevel;paint-order:fill markers stroke"/>
    </g>
  </g>
  <g id="layer2" style="display:inline">
    <path transform="translate(-18.772539,-18.867918)" id="path4396" d="m 148.14734,168.18465 c -14.86241,-1.63954 -28.42035,-11.86396 -33.88921,-25.55679 -1.30957,-3.27887 -2.74534,-8.45759 -2.74534,-9.90225 0,-1.34237 -0.40645,-2.12406 -1.10443,-2.12406 -0.34586,0 -5.65985,4.99589 -11.808866,11.10198 -6.14901,6.1061 -12.352095,11.92645 -13.784633,12.93413 -13.577716,9.55083 -31.793962,10.00034 -46.169645,1.1393 -4.117355,-2.5379 -11.000882,-9.54494 -13.384461,-13.62462 -8.317689,-14.23639 -7.904569,-31.23096 1.092575,-44.945367 2.632648,-4.012957 37.149808,-38.538748 41.156004,-41.166294 5.92482,-3.88591 12.231739,-6.14182 19.437852,-6.952687 9.729108,-1.094765 20.925634,2.025382 28.961684,8.070789 1.56622,1.178241 2.95923,2.142259 3.09557,2.142259 0.13634,0 1.25251,-1.144275 2.48037,-2.542835 14.29901,-16.286784 39.56813,-18.738262 56.60023,-5.491057 2.40042,1.867 6.28093,5.788459 8.14384,8.229773 8.9125,11.679688 10.61336,28.836508 4.20822,42.448789 -0.74558,1.58451 -1.3556,3.19692 -1.3556,3.58312 0,0.38621 0.61002,1.99862 1.3556,3.58313 5.69328,12.09944 5.0654,27.05744 -1.61571,38.49103 -2.76467,4.73126 -7.52394,9.94103 -12.11774,13.26474 -7.66132,5.54314 -18.78914,8.39439 -28.55631,7.31692 z m 11.86548,-6.85328 c 13.36954,-2.59447 24.28987,-13.52502 27.31602,-27.34157 0.52717,-2.40692 0.6325,-4.28123 0.48436,-8.61875 -0.16589,-4.85729 -0.34127,-6.0033 -1.41775,-9.26466 -1.05412,-3.19363 -3.15222,-7.46501 -4.85893,-9.89197 -0.38165,-0.54272 -0.38165,-0.82845 0,-1.37117 1.70671,-2.42696 3.80481,-6.698337 4.85893,-9.891967 1.07648,-3.261357 1.25186,-4.407367 1.41775,-9.264654 0.14814,-4.337517 0.0428,-6.211827 -0.48436,-8.618744 -3.01423,-13.762106 -13.61316,-24.361035 -27.37527,-27.37526 -4.19426,-0.918637 -12.92615,-0.63423 -16.90401,0.550581 -8.76966,2.612071 -16.19672,8.455588 -20.94722,16.481023 l -2.11962,3.58086 -0.9714,-1.29059 c -1.71187,-2.27438 -5.66098,-5.97888 -8.2343,-7.724276 -6.01401,-4.079103 -12.441296,-6.030591 -19.831696,-6.021415 -7.331798,0.0091 -13.515332,1.841528 -19.66344,5.827066 -2.519004,1.632955 -35.498208,34.173969 -38.351541,37.841969 -2.371977,3.049207 -4.587666,7.319047 -5.859675,11.292127 -1.39832,4.36761 -1.792946,12.64772 -0.825694,17.32485 2.854998,13.80531 13.621203,24.62687 27.476574,27.61784 4.137625,0.89319 11.006059,0.78753 15.236966,-0.23439 4.160856,-1.00501 9.216141,-3.30212 12.523244,-5.69052 1.326526,-0.95802 9.815366,-9.15933 18.864082,-18.22514 9.04873,-9.0658 16.58524,-16.48327 16.7478,-16.48327 0.16256,0 0.29788,3.56992 0.30072,7.93316 0.008,11.73853 1.29715,16.84341 6.06482,24.00878 7.92856,11.9159 22.06972,17.66081 36.55364,14.85009 z m -11.67448,-14.49783 c -7.42614,-1.60816 -13.18385,-7.07018 -15.43052,-14.63811 -0.55171,-1.85843 -0.63169,-5.23484 -0.63169,-26.6666 0,-26.962745 -0.0627,-26.164748 2.44875,-31.144995 3.59029,-7.119486 12.58998,-11.642356 20.81552,-10.461026 9.06895,1.30246 16.2263,8.46625 17.55301,17.568793 0.57418,3.939477 -0.17463,8.373164 -2.06148,12.205904 -1.5487,3.145847 -5.31638,7.048054 -8.19843,8.491174 -2.83927,1.4217 -3.52585,2.07212 -3.52585,3.34015 0,1.26804 0.68658,1.91846 3.52585,3.34016 2.88205,1.44312 6.64973,5.34533 8.19843,8.49118 4.03533,8.19692 2.5647,17.44622 -3.78325,23.79418 -5.25528,5.25527 -11.79645,7.21973 -18.91034,5.67919 z m 7.13036,-6.09493 c 4.53081,-0.96134 8.40231,-4.09123 10.35833,-8.37414 1.42547,-3.1212 1.49832,-7.497 0.18097,-10.87006 -1.13878,-2.91585 -4.05182,-6.09845 -6.82466,-7.45617 -4.40678,-2.15779 -6.22222,-4.64056 -6.22222,-8.50941 0,-3.89167 1.66619,-6.155747 6.37857,-8.667417 4.90631,-2.615037 7.54161,-7.044607 7.55505,-12.698944 0.006,-2.700567 -0.16214,-3.510267 -1.18246,-5.680534 -1.51263,-3.21745 -3.95531,-5.660116 -7.17276,-7.172746 -2.17027,-1.02033 -2.97997,-1.18887 -5.68053,-1.18246 -5.68957,0.0135 -10.04868,2.62684 -12.77792,7.660496 l -1.34088,2.473027 v 25.268578 25.2686 l 1.34262,2.47629 c 2.15054,3.96642 5.72309,6.66248 9.92823,7.49244 2.38109,0.46995 3.13076,0.46617 5.45766,-0.0275 z M 56.135373,140.5849 c -8.164298,-2.07015 -14.393306,-8.97035 -15.605469,-17.287 -0.575957,-3.95163 0.137171,-8.14688 2.067226,-12.16127 1.171567,-2.43678 2.789058,-4.17657 18.547669,-19.950074 18.812632,-18.830407 19.163282,-19.119607 24.959787,-20.585417 14.779214,-3.73735 28.328454,9.757533 24.804984,24.705444 -1.26974,5.386717 -1.70362,5.913627 -20.049596,24.348677 -17.405128,17.48963 -18.90484,18.79458 -23.425693,20.38354 -3.034026,1.06637 -8.252366,1.31858 -11.298908,0.5461 z m 10.634548,-7.0421 c 1.926438,-0.87787 4.562826,-3.34043 19.001531,-17.74866 C 105.283,96.323783 105.05743,96.620473 105.03706,90.454276 c -0.009,-2.807637 -0.19201,-3.930317 -0.88896,-5.461687 -1.9262,-4.232357 -5.389647,-7.140404 -9.871616,-8.288634 -2.95585,-0.75725 -5.557625,-0.56091 -8.905663,0.67207 -2.105904,0.77553 -3.395472,1.962467 -18.831624,17.332938 -9.113998,9.075227 -17.085091,17.299587 -17.713543,18.276367 -5.212794,8.10203 -0.653132,19.10949 8.916319,21.52486 2.425127,0.61211 6.526161,0.17266 9.027948,-0.96739 z" style="fill:#01b5f0;stroke-width:0.39176112"/>
  </g>
</svg>